<svg width="183" height="109" viewBox="0 0 183 109" fill="none" xmlns="http://www.w3.org/2000/svg">
<g clip-path="url(#clip0_200_134)">
<path d="M87.8888 55.3197V56.4478H86.7607H36.1726C31.9333 56.4478 28.2818 56.3223 25.2235 56.0689C22.1411 55.8159 19.5162 55.4342 17.3614 54.9162L17.3555 54.9147C15.1813 54.3794 13.376 53.6997 11.9828 52.8489C10.6104 52.0108 9.51105 51.0081 8.72885 49.8248C7.9641 48.6678 7.46957 47.3748 7.23952 45.9601C6.99245 44.5973 6.87169 43.1185 6.87169 41.5275C6.87169 40.1392 7.09571 38.8691 7.57578 37.7418C8.03131 36.6535 8.64026 35.6952 9.40842 34.8802C10.1291 34.0663 10.9647 33.3888 11.911 32.8509C12.7867 32.3184 13.6961 31.8762 14.6387 31.5255L14.6445 31.5234C15.0725 31.3668 15.5115 31.224 15.9611 31.0949C15.1979 30.7589 14.4559 30.3427 13.7352 29.849L13.7263 29.8429L13.7175 29.8366C12.9469 29.2867 12.2657 28.6195 11.6733 27.8417C11.0627 27.0401 10.5847 26.1115 10.2287 25.0706C9.85804 23.9866 9.68458 22.7723 9.68458 21.4451C9.68458 19.65 9.93299 18.0169 10.4539 16.5633C11.0236 14.9738 12.1512 13.7013 13.7282 12.7284C15.2846 11.7311 17.4257 11.035 20.0674 10.5814C22.7383 10.1036 26.2101 9.87194 30.4589 9.87194H86.7607H87.8888V11V55.3197ZM18.7939 46.8582L18.7939 46.8581L18.8021 46.868C19.2124 47.3642 19.8327 47.8146 20.728 48.1853C21.6367 48.5421 22.8829 48.8419 24.4977 49.0654C26.1192 49.2706 28.1144 49.4127 30.4902 49.4889C32.8804 49.5463 35.7117 49.575 38.9855 49.575H77.194V35.2113H38.9855C35.7118 35.2113 32.8823 35.2497 30.495 35.3261V35.3261L30.486 35.3264C28.1043 35.3836 26.1041 35.5072 24.4788 35.6944C22.8493 35.882 21.588 36.1395 20.667 36.4504L20.658 36.4535L20.6489 36.4564C19.7355 36.7476 19.1225 37.1137 18.7312 37.5058L18.7141 37.523L18.6961 37.5395C18.2794 37.9225 17.9933 38.4003 17.8395 39.0063L17.8378 39.0126C17.6631 39.6844 17.5665 40.5174 17.5665 41.5275C17.5665 42.862 17.6658 43.9632 17.8503 44.8457C18.0211 45.6628 18.3413 46.3234 18.7939 46.8582ZM38.9855 28.3385H77.194V16.7447H33.2718C30.4753 16.7447 28.2107 16.8214 26.4682 16.9714L26.4682 16.9715L26.4548 16.9724C24.693 17.103 23.3867 17.3691 22.4842 17.7312L22.476 17.7345L22.4676 17.7377C21.59 18.0738 21.1104 18.5092 20.8621 18.975C20.5674 19.5278 20.3794 20.3274 20.3794 21.4451C20.3794 22.5446 20.4634 23.4633 20.6189 24.2134C20.7569 24.8616 21.0248 25.3928 21.4148 25.8338L21.4254 25.8457L21.4356 25.858C21.7907 26.283 22.3285 26.6776 23.1101 27.01C23.9032 27.3278 24.9901 27.5981 26.4008 27.8019C27.814 28.006 29.5444 28.1478 31.5994 28.2239C33.6618 28.3001 36.1231 28.3385 38.9855 28.3385Z" fill="#1E1E1E" stroke="#1E1E1E" stroke-width="2.25613"/>
<path d="M94.9774 55.3197V56.4478H96.1055H146.694C150.933 56.4478 154.584 56.3223 157.643 56.0689C160.725 55.8159 163.35 55.4342 165.505 54.9162L165.511 54.9147C167.685 54.3794 169.49 53.6997 170.883 52.8489C172.256 52.0108 173.355 51.0081 174.137 49.8248C174.902 48.6678 175.397 47.3748 175.627 45.9601C175.874 44.5973 175.995 43.1185 175.995 41.5275C175.995 40.1392 175.771 38.8691 175.29 37.7418C174.835 36.6535 174.226 35.6952 173.458 34.8802C172.737 34.0663 171.902 33.3888 170.955 32.8509C170.08 32.3184 169.17 31.8762 168.228 31.5255L168.222 31.5234C167.794 31.3668 167.355 31.224 166.905 31.0949C167.668 30.7589 168.41 30.3427 169.131 29.849L169.14 29.8429L169.149 29.8366C169.919 29.2867 170.601 28.6195 171.193 27.8417C171.803 27.0401 172.282 26.1115 172.637 25.0706C173.008 23.9866 173.182 22.7723 173.182 21.4451C173.182 19.65 172.933 18.0169 172.412 16.5633C171.843 14.9738 170.715 13.7013 169.138 12.7284C167.582 11.7311 165.44 11.035 162.799 10.5814C160.128 10.1036 156.656 9.87194 152.407 9.87194H96.1055H94.9774V11V55.3197ZM164.072 46.8582L164.072 46.8581L164.064 46.868C163.654 47.3642 163.034 47.8146 162.138 48.1853C161.229 48.5421 159.983 48.8419 158.369 49.0654C156.747 49.2706 154.752 49.4127 152.376 49.4889C149.986 49.5463 147.154 49.575 143.881 49.575H105.672V35.2113H143.881C147.154 35.2113 149.984 35.2497 152.371 35.3261V35.3261L152.38 35.3264C154.762 35.3836 156.762 35.5072 158.387 35.6944C160.017 35.882 161.278 36.1395 162.199 36.4504L162.208 36.4535L162.217 36.4564C163.131 36.7476 163.744 37.1137 164.135 37.5058L164.152 37.523L164.17 37.5395C164.587 37.9225 164.873 38.4003 165.027 39.0063L165.028 39.0126C165.203 39.6844 165.3 40.5174 165.3 41.5275C165.3 42.862 165.2 43.9632 165.016 44.8457C164.845 45.6628 164.525 46.3234 164.072 46.8582ZM143.881 28.3385H105.672V16.7447H149.594C152.391 16.7447 154.655 16.8214 156.398 16.9714L156.398 16.9715L156.411 16.9724C158.173 17.103 159.479 17.3691 160.382 17.7312L160.39 17.7345L160.399 17.7377C161.276 18.0738 161.756 18.5092 162.004 18.975C162.299 19.5278 162.487 20.3274 162.487 21.4451C162.487 22.5446 162.403 23.4633 162.247 24.2134C162.109 24.8616 161.841 25.3928 161.451 25.8338L161.441 25.8457L161.431 25.858C161.076 26.283 160.538 26.6776 159.756 27.01C158.963 27.3278 157.876 27.5981 156.465 27.8019C155.052 28.006 153.322 28.1478 151.267 28.2239C149.204 28.3001 146.743 28.3385 143.881 28.3385Z" fill="#1E1E1E" stroke="#1E1E1E" stroke-width="2.25613"/>
<path d="M12.9234 65.5684V83.1304H10.5286V63.9718H14.52L25.6833 80.7356L36.8467 63.9718H40.6634V83.1304H38.2686V65.8303L26.8932 83.1304H24.4734L12.9234 65.5684ZM57.4591 83.1304V63.9718H76.6177V65.9675H59.8539V72.3537H75.8194V74.3494H59.8539V81.1347H76.6177V83.1304H57.4591ZM106.173 81.1347C107.229 81.1347 108.123 81.1056 108.855 81.0474C109.587 80.9892 110.19 80.8728 110.664 80.6981C111.137 80.5152 111.503 80.2533 111.761 79.9123C112.019 79.5714 112.206 79.1224 112.322 78.5652C112.447 77.9998 112.518 77.3096 112.534 76.4947C112.559 75.6715 112.572 74.6903 112.572 73.5511C112.572 72.4119 112.559 71.4348 112.534 70.6199C112.518 69.7967 112.447 69.1065 112.322 68.5494C112.206 67.984 112.019 67.5308 111.761 67.1899C111.503 66.8489 111.137 66.5911 110.664 66.4165C110.19 66.2336 109.587 66.113 108.855 66.0548C108.131 65.9966 107.238 65.9675 106.173 65.9675H94.2116V81.1347H106.173ZM91.8168 83.1304V63.9718H106.173C107.637 63.9718 108.867 64.0591 109.865 64.2337C110.871 64.4001 111.699 64.6578 112.347 65.0071C113.004 65.3563 113.507 65.7929 113.857 66.3167C114.214 66.8406 114.472 67.4601 114.63 68.1752C114.796 68.882 114.892 69.6845 114.917 70.5825C114.95 71.4723 114.967 72.4618 114.967 73.5511C114.967 74.6404 114.95 75.6341 114.917 76.5321C114.892 77.4219 114.796 78.2243 114.63 78.9394C114.472 79.6462 114.214 80.2616 113.857 80.7854C113.507 81.3093 113.004 81.7459 112.347 82.0951C111.699 82.4444 110.871 82.7063 109.865 82.8809C108.867 83.0472 107.637 83.1304 106.173 83.1304H91.8168ZM130.964 63.9718H133.359V83.1304H130.964V63.9718ZM168.914 78.7399H153.747L151.352 83.1304H148.558L159.734 63.9718H162.927L174.103 83.1304H171.309L168.914 78.7399ZM167.717 76.7442L161.33 65.5684L154.944 76.7442H167.717Z" fill="#1E1E1E"/>
</g>
<defs>
<clipPath id="clip0_200_134">
<rect width="183" height="109" fill="white"/>
</clipPath>
</defs>
</svg>
